<?xml version="1.0" encoding="UTF-8"?>
<svg width="30px" height="18px" viewBox="0 0 30 18" version="1.1" xmlns="http://www.w3.org/2000/svg" xmlns:xlink="http://www.w3.org/1999/xlink">
    <!-- Generator: Sketch 42 (36781) - http://www.bohemiancoding.com/sketch -->
    <title>mail icon</title>
    <desc>Created with Sketch.</desc>
    <defs></defs>
    <g id="Page-1" stroke="none" stroke-width="1" fill="none" fill-rule="evenodd">
        <g id="Subscribe" transform="translate(-154.000000, -291.000000)" fill-rule="nonzero" fill="#FFFFFF">
            <g id="form" transform="translate(130.000000, 277.000000)">
                <g id="input">
                    <g id="mail-icon" transform="translate(24.000000, 14.000000)">
                        <g id="Layer_1">
                            <path d="M10.2272461,11.7559539 L4.77275391,11.7559539 C4.36365234,11.7559539 4.09095703,12.0315789 4.09095703,12.4449276 C4.09095703,12.8582763 4.36371094,13.1339013 4.77275391,13.1339013 L10.2273047,13.1339013 C10.6364063,13.1339013 10.9091016,12.8582763 10.9091016,12.4449276 C10.9091016,12.0315789 10.6363477,11.7559539 10.2272461,11.7559539 Z" id="Shape"></path>
                            <path d="M8.18179688,8.31102632 L2.72724609,8.31102632 C2.31814453,8.31102632 2.04544922,8.58665132 2.04544922,9 C2.04544922,9.41334868 2.31820313,9.68897368 2.72724609,9.68897368 L8.18179688,9.68897368 C8.59089844,9.68897368 8.86359375,9.41334868 8.86359375,9 C8.86359375,8.58665132 8.59089844,8.31102632 8.18179688,8.31102632 Z" id="Shape"></path>
                            <path d="M6.13634766,4.86603947 L0.681796875,4.86603947 C0.272753906,4.86603947 0,5.14160526 0,5.55501316 C0,5.96842105 0.272753906,6.24398684 0.681796875,6.24398684 L6.13634766,6.24398684 C6.54544922,6.24398684 6.81814453,5.96836184 6.81814453,5.55501316 C6.81814453,5.14166447 6.54544922,4.86603947 6.13634766,4.86603947 Z" id="Shape"></path>
                            <path d="M27.1363477,3.074625 C26.9317969,2.799 26.4545508,2.73013816 26.1817969,2.93684211 L18.9545508,8.51773026 C18.2045508,9.06892105 17.1817969,9.06892105 16.4317969,8.51773026 L9.20455078,2.93684211 C8.93179687,2.73013816 8.45455078,2.73013816 8.25,3.074625 C8.04544922,3.35025 8.04544922,3.83251974 8.38634766,4.03922368 L15.6817969,9.62011184 C16.2954492,10.1023816 17.0454492,10.3090855 17.7272461,10.3090855 C18.409043,10.3090855 19.2272461,10.1023816 19.7726953,9.62011184 L27,4.03922368 C27.2727539,3.83251974 27.3408984,3.35025 27.1363477,3.074625 Z" id="Shape"></path>
                            <path d="M27.9545508,0.0430460526 L6.13634766,0.0430460526 C5.72724609,0.0430460526 5.45455078,0.318671053 5.45455078,0.732019737 C5.45455078,1.14536842 5.72724609,1.42105263 6.13634766,1.42105263 L27.9545508,1.42105263 C28.3636523,1.42105263 28.6363477,1.69667763 28.6363477,2.11002632 L28.6363477,15.8899145 C28.6363477,16.3033224 28.3635937,16.5788882 27.9545508,16.5788882 L6.13634766,16.5788882 C5.72724609,16.5788882 5.45455078,16.8545132 5.45455078,17.2678618 C5.45455078,17.6812697 5.72730469,17.9568355 6.13634766,17.9568355 L27.9545508,17.9568355 C29.1136523,17.9568355 30,17.0611579 30,15.8898553 L30,2.11002632 C30,0.938782895 29.1136523,0.0430460526 27.9545508,0.0430460526 Z" id="Shape"></path>
                            <path d="M27.0682031,14.0296382 L22.9773047,9.89567763 C22.7045508,9.62005263 22.2955078,9.62005263 22.0227539,9.89567763 C21.75,10.1713026 21.75,10.5846513 22.0227539,10.8602763 L26.1136523,14.9942368 C26.25,15.1320197 26.4545508,15.2009408 26.5908984,15.2009408 C26.7272461,15.2009408 26.9317969,15.1320197 27.0682031,14.9942368 C27.3408984,14.7186711 27.3408984,14.3052632 27.0682031,14.0296382 Z" id="Shape"></path>
                        </g>
                    </g>
                </g>
            </g>
        </g>
    </g>
</svg>